<?xml version="1.0" standalone="no"?>
<!DOCTYPE svg PUBLIC "-//W3C//DTD SVG 20010904//EN"
 "http://www.w3.org/TR/2001/REC-SVG-20010904/DTD/svg10.dtd">
<svg version="1.0" xmlns="http://www.w3.org/2000/svg"
 width="528.000000pt" height="1280.000000pt" viewBox="0 0 528.000000 1280.000000"
 preserveAspectRatio="xMidYMid meet">
<metadata>
Created by potrace 1.15, written by Peter Selinger 2001-2017
</metadata>
<g transform="translate(0.000000,1280.000000) scale(0.100000,-0.100000)"
fill="#000000" stroke="none">
<path d="M2645 12769 c-84 -12 -118 -26 -147 -57 -32 -34 -48 -82 -48 -143 0
-56 30 -98 93 -130 53 -28 98 -22 218 29 232 97 316 75 401 -108 97 -206 151
-371 203 -618 19 -93 56 -233 81 -312 71 -224 70 -310 -4 -392 -45 -49 -93
-74 -179 -92 -84 -18 -113 -46 -113 -109 0 -53 37 -204 89 -370 67 -210 57
-273 -90 -562 -56 -110 -111 -214 -122 -231 -91 -139 -296 -84 -392 105 -34
68 -55 153 -55 224 0 61 12 92 61 160 38 53 44 92 30 206 -9 77 -20 115 -56
191 -24 52 -58 145 -75 205 -39 138 -61 175 -149 254 -98 87 -105 101 -96 221
7 94 6 98 -16 114 -29 20 -50 20 -119 1 -30 -9 -100 -27 -155 -41 -129 -32
-154 -42 -187 -72 -33 -30 -37 -75 -13 -142 14 -41 14 -45 -16 -119 -41 -103
-55 -229 -40 -376 6 -60 13 -162 16 -225 9 -176 15 -190 116 -295 110 -115
161 -187 200 -289 61 -157 48 -297 -33 -346 -65 -39 -103 -25 -250 92 -58 47
-148 114 -198 148 -118 81 -195 160 -249 254 -52 92 -61 127 -54 221 12 149
-64 312 -168 366 -30 15 -59 19 -131 19 -105 0 -136 13 -182 72 -45 59 -64
120 -96 294 -16 93 -41 228 -54 299 -14 72 -29 180 -35 240 -15 149 -26 482
-17 528 12 62 57 104 140 128 185 54 348 113 391 141 54 36 95 92 95 130 0 16
-12 41 -29 60 -63 70 -222 45 -467 -77 -172 -84 -250 -146 -305 -243 -36 -63
-41 -94 -58 -402 -5 -91 -17 -232 -26 -315 -20 -179 -15 -385 15 -575 26 -167
27 -170 105 -285 133 -195 144 -275 47 -328 -121 -66 -172 -122 -172 -190 0
-59 24 -93 113 -159 118 -88 168 -108 279 -115 51 -2 109 -9 128 -15 48 -14
130 -77 220 -168 88 -88 415 -498 477 -597 36 -58 95 -203 218 -538 8 -22 57
-111 109 -197 88 -147 97 -169 161 -365 94 -287 95 -293 102 -424 7 -142 -3
-191 -67 -324 -51 -106 -102 -169 -156 -191 -39 -16 -151 -35 -415 -69 -108
-14 -241 -39 -299 -55 -58 -16 -159 -41 -225 -55 -68 -15 -193 -55 -288 -91
-93 -35 -218 -78 -278 -94 -219 -60 -323 -98 -357 -131 -39 -38 -46 -74 -40
-203 6 -112 22 -154 112 -294 69 -108 130 -159 299 -252 43 -23 115 -72 160
-108 103 -82 164 -110 279 -128 111 -18 142 -33 288 -142 144 -106 278 -173
364 -179 51 -4 75 0 144 26 140 52 207 39 251 -47 37 -73 117 -461 146 -702 8
-69 23 -188 35 -265 11 -77 20 -171 20 -208 0 -45 6 -82 19 -110 35 -78 44
-183 36 -452 -7 -246 -6 -254 25 -475 31 -218 32 -232 27 -475 -3 -137 -15
-353 -27 -480 -39 -420 -77 -523 -230 -621 -76 -48 -106 -102 -96 -172 10 -71
43 -128 105 -180 176 -147 196 -186 216 -418 18 -212 42 -389 59 -428 21 -48
59 -78 100 -78 69 0 105 44 141 167 19 68 61 145 78 145 19 0 75 -90 103 -167
29 -78 70 -135 115 -158 42 -22 142 -30 179 -15 88 36 122 206 102 520 -5 89
-5 214 1 325 12 221 3 280 -73 446 -72 157 -97 230 -110 329 -12 89 -20 423
-19 790 0 205 2 222 34 375 19 88 44 250 55 360 24 226 26 240 79 425 22 74
51 187 66 250 42 177 86 301 169 472 120 247 184 454 242 783 39 225 60 283
127 341 54 47 132 83 194 90 92 11 241 -40 393 -133 114 -70 164 -77 288 -43
96 27 181 66 279 128 51 33 129 69 218 102 196 71 247 109 247 185 0 56 -31
95 -146 180 -60 44 -163 122 -230 172 -67 51 -227 164 -357 251 -196 132 -277
179 -484 282 -284 142 -337 182 -398 297 -83 161 -98 288 -98 865 -1 309 6
440 31 648 12 97 5 356 -11 440 -8 40 -12 145 -12 275 0 177 3 224 21 300 11
50 31 151 42 225 29 175 57 272 119 402 54 111 81 143 209 241 63 47 173 183
198 244 46 109 -21 191 -174 213 -102 14 -119 23 -131 67 -14 47 -14 130 -1
207 21 127 -14 304 -107 546 -62 162 -107 255 -228 475 -45 83 -125 231 -176
329 -51 99 -110 201 -131 227 -47 60 -136 105 -233 119 -83 11 -246 11 -330
-1z"/>
</g>
</svg>
