<?xml version="1.0" standalone="no"?>
<!DOCTYPE svg PUBLIC "-//W3C//DTD SVG 20010904//EN"
 "http://www.w3.org/TR/2001/REC-SVG-20010904/DTD/svg10.dtd">
<svg version="1.0" xmlns="http://www.w3.org/2000/svg"
 width="788.000000pt" height="1280.000000pt" viewBox="0 0 788.000000 1280.000000"
 preserveAspectRatio="xMidYMid meet">
<metadata>
Created by potrace 1.15, written by Peter Selinger 2001-2017
</metadata>
<g transform="translate(0.000000,1280.000000) scale(0.100000,-0.100000)"
fill="#000000" stroke="none">
<path d="M2450 12772 c0 -33 -16 -52 -45 -52 -26 0 -55 29 -55 54 0 17 -11 18
-146 14 -132 -3 -147 -5 -160 -23 -25 -37 -35 -45 -54 -45 -19 0 -45 21 -52
41 -7 22 -486 -53 -718 -112 -186 -48 -210 -57 -210 -83 0 -23 -28 -56 -47
-56 -6 0 -23 10 -38 22 l-28 22 -81 -28 c-184 -62 -447 -212 -520 -294 -19
-22 -19 -22 0 -23 10 0 28 -2 39 -5 11 -2 70 -5 131 -7 68 -1 117 -7 125 -14
8 -7 51 -23 94 -37 273 -87 489 -272 720 -617 31 -46 62 -87 68 -90 7 -4 39
-10 72 -13 70 -8 390 -71 421 -83 21 -8 21 -9 -11 -66 -27 -49 -34 -55 -45
-42 -7 9 -29 15 -50 15 -64 0 -130 -84 -130 -167 0 -89 100 -187 214 -208 l37
-7 -6 -57 c-10 -77 -26 -101 -73 -102 l-37 -1 33 -9 c41 -12 42 -24 2 -15 -17
3 -29 2 -26 -3 3 -5 20 -11 37 -15 l31 -6 -23 -32 c-13 -18 -58 -67 -100 -109
-42 -42 -82 -86 -88 -97 -29 -53 1 -109 78 -145 53 -25 63 -55 37 -106 -25
-47 -20 -84 14 -114 17 -15 30 -34 30 -42 0 -8 8 -18 17 -24 17 -9 17 -10 0
-28 -24 -28 -21 -67 9 -113 26 -40 26 -41 10 -83 -30 -79 -14 -145 47 -191 46
-35 99 -40 280 -27 241 18 264 4 328 -204 22 -71 62 -186 88 -255 68 -175 95
-279 87 -323 -4 -20 -43 -91 -88 -159 -45 -68 -98 -159 -119 -203 -35 -75 -47
-88 -190 -220 -190 -174 -241 -225 -293 -295 -22 -30 -64 -80 -92 -111 -115
-123 -154 -212 -154 -353 0 -76 6 -112 30 -192 17 -55 36 -127 43 -161 8 -45
16 -63 27 -63 13 0 15 -13 12 -78 -3 -62 -1 -81 12 -91 28 -23 18 -28 -35 -17
-47 10 -55 8 -107 -19 -31 -17 -108 -64 -172 -106 -506 -337 -863 -872 -1149
-1725 -104 -310 -194 -639 -341 -1253 -38 -162 -86 -347 -105 -412 -19 -65
-35 -125 -35 -133 0 -23 80 -118 209 -249 165 -168 285 -253 446 -317 144 -58
227 -71 481 -77 l230 -5 47 -287 c26 -157 117 -713 202 -1236 85 -522 158
-962 161 -978 l6 -27 683 0 683 0 6 28 c3 15 80 464 171 997 91 534 184 1073
205 1198 22 125 40 231 40 234 0 3 53 3 118 -1 228 -12 316 14 363 111 18 38
21 56 16 116 -6 68 40 693 63 868 12 85 25 134 99 364 40 126 65 183 115 267
35 60 79 151 97 205 34 97 34 100 34 273 0 152 -3 186 -23 255 -36 128 -121
284 -278 510 -80 115 -164 244 -187 285 -22 41 -61 102 -85 135 -42 57 -98
162 -90 170 2 2 100 -49 218 -113 381 -205 734 -361 789 -347 14 4 49 30 78
60 41 42 56 67 73 121 31 101 36 216 15 374 -25 196 -52 291 -169 583 -75 187
-132 353 -201 582 -53 176 -112 370 -132 430 -40 125 -165 444 -218 560 -28
62 -35 90 -35 140 0 67 -36 208 -73 285 -25 54 -266 303 -391 405 -47 39 -86
75 -86 81 0 5 6 18 13 28 10 14 17 15 40 7 16 -6 61 -11 102 -11 60 0 82 5
126 28 92 48 137 141 109 226 -16 48 -73 103 -122 116 -34 10 -37 13 -28 31
13 23 43 19 103 -14 56 -31 82 -79 82 -154 l0 -63 151 -64 c202 -87 279 -103
362 -72 85 30 144 139 124 231 -5 25 -8 45 -6 45 3 0 21 -11 42 -24 l38 -24
11 29 c10 24 17 29 46 29 23 0 37 -6 41 -16 10 -26 7 -51 -9 -64 -8 -7 -15
-16 -15 -20 0 -5 31 -31 69 -60 61 -45 74 -50 103 -45 42 8 74 -21 65 -57 -9
-34 105 -148 148 -148 39 0 55 -16 55 -53 0 -20 16 -49 53 -93 49 -61 54 -65
87 -60 58 9 88 -34 55 -80 -13 -19 -9 -29 48 -122 35 -55 68 -107 75 -115 7
-8 56 -25 110 -37 53 -12 186 -44 296 -71 109 -28 199 -49 200 -47 1 2 7 15
14 31 9 22 18 27 47 27 28 0 37 -5 44 -22 5 -13 5 -32 1 -44 -8 -19 3 -24 143
-68 84 -26 199 -65 256 -87 58 -21 108 -39 112 -39 4 0 10 11 13 24 11 45 81
46 92 1 3 -13 0 -33 -6 -45 -6 -12 -10 -23 -8 -24 2 -1 41 -22 88 -45 286
-147 480 -313 620 -531 37 -58 82 -120 99 -138 24 -26 31 -43 31 -75 1 -23 7
-53 14 -66 13 -23 13 -23 20 20 20 135 37 374 42 599 8 335 -10 626 -62 963
l-17 109 -33 -7 c-28 -5 -36 -2 -50 20 -14 22 -15 29 -4 50 8 16 22 25 37 25
33 0 31 26 -21 231 -72 288 -180 594 -295 843 -32 68 -44 87 -53 78 -18 -18
-53 -14 -71 6 -24 26 -21 47 9 71 l26 21 -32 62 c-79 152 -227 378 -353 540
-304 391 -670 707 -1082 932 l-120 66 -12 -25 c-18 -34 -50 -50 -69 -34 -28
23 -34 44 -19 73 13 25 13 27 -8 36 -110 44 -158 70 -181 97 -37 43 -34 70 9
90 30 14 43 32 81 113 55 114 97 221 90 228 -11 10 -79 -52 -135 -122 -31 -40
-79 -110 -106 -156 -27 -47 -49 -86 -50 -88 -1 -1 -84 38 -183 87 -239 117
-238 117 -254 83 -28 -57 -105 -28 -93 34 l6 32 -81 31 c-89 35 -403 131 -426
131 -8 0 -19 -12 -24 -26 -9 -22 -15 -25 -47 -22 -36 3 -38 5 -41 40 -3 35 -6
38 -44 48 -133 36 -415 89 -628 119 -265 36 -249 36 -275 11 -28 -26 -74 -21
-82 9 -6 22 -33 27 -200 37 l-123 7 0 -25 c0 -13 -5 -29 -12 -36 -30 -30 -88
1 -88 46 0 22 -3 22 -155 22 l-155 0 0 -28z m-530 -1619 c0 -32 3 -68 6 -80 5
-16 2 -23 -8 -23 -25 0 -59 46 -65 88 -4 33 -2 42 18 56 41 28 49 21 49 -41z
m1902 -1233 c5 0 -24 -33 -65 -74 -187 -185 -252 -344 -200 -488 31 -88 0 -70
-80 46 -58 83 -19 190 122 336 50 52 94 104 97 115 6 23 83 75 102 69 8 -2 18
-4 24 -4z m718 -320 c-79 -14 -131 -68 -115 -119 9 -30 40 -44 65 -31 26 14
25 17 -2 16 -35 -1 -31 38 4 42 30 4 68 -27 68 -56 0 -61 -74 -82 -128 -37
-66 55 -66 129 0 201 l40 43 51 -26 52 -27 -35 -6z m-633 -112 c14 -22 14 -30
3 -57 -15 -36 -60 -64 -95 -59 -24 3 -24 3 18 76 23 40 45 71 50 69 5 -1 16
-14 24 -29z"/>
</g>
</svg>
