<?xml version="1.0" standalone="no"?>
<!DOCTYPE svg PUBLIC "-//W3C//DTD SVG 20010904//EN"
 "http://www.w3.org/TR/2001/REC-SVG-20010904/DTD/svg10.dtd">
<svg version="1.0" xmlns="http://www.w3.org/2000/svg"
 width="1213.000000pt" height="1280.000000pt" viewBox="0 0 1213.000000 1280.000000"
 preserveAspectRatio="xMidYMid meet">
<metadata>
Created by potrace 1.15, written by Peter Selinger 2001-2017
</metadata>
<g transform="translate(0.000000,1280.000000) scale(0.100000,-0.100000)"
fill="#000000" stroke="none">
<path d="M161 12446 c-88 -195 -161 -360 -161 -367 0 -6 90 -206 201 -444
l201 -432 171 -47 172 -46 370 -25 c204 -14 377 -29 386 -33 9 -4 273 -216
586 -471 l570 -463 346 -152 346 -151 328 -287 c207 -181 490 -444 767 -713
l440 -427 203 -324 203 -323 0 -344 0 -345 55 -151 55 -152 0 -687 0 -687 41
-536 41 -537 -122 -378 -123 -379 -42 -1280 -43 -1281 -40 -80 c-35 -70 -50
-124 -116 -424 -42 -190 -76 -351 -76 -358 0 -9 123 -12 578 -12 632 0 614 1
1394 -81 175 -18 320 -30 323 -27 6 5 28 210 37 341 l3 48 -504 267 -505 268
-63 152 -62 153 26 482 26 482 168 690 c138 571 193 777 319 1195 l151 505
105 830 c57 457 107 843 112 859 6 25 17 32 73 51 42 14 137 69 268 153 l203
131 159 212 c87 117 161 214 163 216 12 13 252 58 517 98 l301 45 567 247 566
246 285 212 285 212 129 32 c71 17 130 30 131 29 2 -2 12 -39 23 -83 18 -72
22 -137 32 -640 l11 -560 106 -250 c59 -137 109 -253 112 -257 3 -3 96 17 206
45 l199 52 113 195 112 195 117 350 117 350 -12 315 c-10 266 -20 391 -68 800
l-56 486 89 124 c70 101 114 179 221 403 73 153 133 284 133 293 0 8 -50 111
-110 228 l-110 213 25 58 c14 31 46 151 70 265 l45 208 -203 434 -203 433 -94
32 c-52 17 -221 72 -374 122 l-279 90 -71 -64 c-39 -35 -179 -162 -310 -282
l-239 -218 -59 -150 c-32 -82 -82 -217 -111 -300 l-51 -150 -4 -258 c-3 -234
-5 -257 -20 -253 -10 2 -66 16 -126 31 l-109 27 -338 225 -338 226 -248 -86
-248 -86 -270 -14 c-196 -10 -373 -12 -645 -6 -206 4 -647 10 -980 14 l-605 8
-292 82 -292 83 -336 -58 c-185 -32 -338 -60 -339 -62 -148 -204 -156 -218
-177 -303 -12 -47 -25 -85 -29 -85 -4 0 -97 27 -207 59 l-199 59 -915 485
c-863 458 -921 487 -1049 527 -74 23 -306 96 -515 162 l-380 119 -505 505
c-450 449 -508 504 -536 504 l-31 0 -162 -354z m8117 -2598 c-3 -7 -31 -86
-64 -176 l-59 -162 -171 -131 -172 -130 -148 -35 c-82 -19 -158 -35 -169 -36
-11 -1 -109 40 -218 90 l-198 92 -234 0 -234 0 -203 123 c-118 72 -290 165
-412 223 l-209 99 619 6 c555 5 738 11 1174 38 69 5 255 9 414 10 227 1 287
-2 284 -11z"/>
</g>
</svg>
